<svg viewBox="0 0 24 24" fill="none" xmlns="http://www.w3.org/2000/svg"><path fill-rule="evenodd" clip-rule="evenodd" d="M6 2a3 3 0 0 0-3 3v14a3 3 0 0 0 3 3h13.828l.739-1.675a1.965 1.965 0 0 1-.24-2.327l.207-.287.033-.036-.003-.005.436-.526V3l-1-1H6zm0 18a1 1 0 1 1 0-2h12.18a3.979 3.979 0 0 0 0 2H6zm3.096-6.875A5.32 5.32 0 0 0 6.852 16h10.116a5.32 5.32 0 0 0-2.244-2.875 3.899 3.899 0 0 1-2.814 1.195 3.899 3.899 0 0 1-2.814-1.195zm2.814-.305a2.41 2.41 0 1 0 0-4.82 2.41 2.41 0 0 0 0 4.82z" fill="currentColor"/></svg>