<svg viewBox="0 0 24 24" fill="none" xmlns="http://www.w3.org/2000/svg"><path fill-rule="evenodd" clip-rule="evenodd" d="M11 8a5 5 0 1 1 10 0 5 5 0 0 1-10 0zm3 0a2 2 0 1 1 4 0 2 2 0 0 1-4 0z" fill="currentColor"/><path d="M3 11.868V8a5 5 0 0 1 5-5h2v2H8a3 3 0 0 0-3 3v.132l1.445-.964 1.11 1.664L3 11.868zM6 16a2 2 0 1 1 4 0 2 2 0 0 1-4 0z" fill="currentColor"/><path fill-rule="evenodd" clip-rule="evenodd" d="M3 16a5 5 0 1 1 10 0 5 5 0 0 1-10 0zm5-3a3 3 0 1 0 0 6 3 3 0 0 0 0-6z" fill="currentColor"/><path d="M21 16v-3.868l-4.555 3.036 1.11 1.664L19 15.868V16a3 3 0 0 1-3 3h-2v2h2a5 5 0 0 0 5-5z" fill="currentColor"/></svg>