<svg viewBox="0 0 24 24" fill="none" xmlns="http://www.w3.org/2000/svg"><path fill-rule="evenodd" clip-rule="evenodd" d="M15.202 4.67a7.957 7.957 0 0 0-.284-.12L14.281 2H9.719l-.637 2.55a7.94 7.94 0 0 0-.284.12L6.542 3.316 3.316 6.542 4.67 8.798a7.95 7.95 0 0 0-.12.284L2 9.719v4.562l2.55.637c.039.096.078.19.12.284l-1.354 2.256 3.226 3.226 2.256-1.354c.093.042.188.081.284.12L9.719 22h4.562l.637-2.55c.096-.039.19-.078.284-.12l2.256 1.354 3.226-3.226-1.354-2.256c.042-.093.081-.188.12-.284l2.55-.637V9.719l-2.55-.637a7.822 7.822 0 0 0-.12-.284l1.354-2.256-3.226-3.226-2.256 1.354zM16 12a4 4 0 1 1-8 0 4 4 0 0 1 8 0z" fill="currentColor"/></svg>